<?xml version="1.0" encoding="utf-8"?>
<!-- Generator: Adobe Illustrator 16.0.0, SVG Export Plug-In . SVG Version: 6.00 Build 0)  -->
<!DOCTYPE svg PUBLIC "-//W3C//DTD SVG 1.1//EN" "http://www.w3.org/Graphics/SVG/1.1/DTD/svg11.dtd">
<svg version="1.1" xmlns="http://www.w3.org/2000/svg" xmlns:xlink="http://www.w3.org/1999/xlink" x="0px" y="0px" width="1500px"
	 height="1405px" viewBox="0 0 1500 1405" enable-background="new 0 0 1500 1405" xml:space="preserve">
<g id="Background">
	<rect fill="#DD390D" width="1500" height="1405"/>
</g>
<g id="Text">
	<g>
		<path fill="#FFFFFF" d="M343.62,1002.848h-44.275l-34.375-69.3h-38.775v69.3h-38.5v-192.5h89.65
			c19.25,0,34.831,5.045,46.75,15.125c13.015,11,19.525,26.31,19.525,45.925c0,28.05-12.285,46.935-36.85,56.65L343.62,1002.848z
			 M304.021,872.223c0-16.315-9.17-24.475-27.5-24.475h-50.325v49.5h50.325C294.851,897.248,304.021,888.907,304.021,872.223z"/>
		<path fill="#FFFFFF" d="M477.268,1002.848h-37.95v-9.625c-8.069,8.435-18.885,12.65-32.45,12.65
			c-14.669,0-27.044-4.216-37.125-12.65c-11.185-9.35-16.775-22.275-16.775-38.775c0-15.399,5.68-27.405,17.05-36.024
			c10.45-7.881,24.29-11.825,41.525-11.825c10.815,0,20.075,1.925,27.775,5.775v-7.15c0-5.315-1.787-9.715-5.362-13.2
			c-3.575-3.48-8.663-5.225-15.263-5.225c-14.484,0-27.685,3.21-39.6,9.625l-14.575-26.4c16.865-9.715,34.925-14.575,54.175-14.575
			c17.781,0,31.99,4.447,42.625,13.338c10.631,8.895,15.95,21.312,15.95,37.263V1002.848z M439.317,960.498v-18.15
			c-6.419-4.03-15.219-6.05-26.4-6.05c-14.669,0-22,6.05-22,18.149c0,12.835,7.331,19.25,22,19.25
			C425.198,973.697,433.998,969.298,439.317,960.498z"/>
		<path fill="#FFFFFF" d="M536.392,824.923c0,5.869-2.157,10.957-6.462,15.263c-4.31,4.31-9.397,6.462-15.263,6.462
			c-5.87,0-10.957-2.152-15.262-6.462c-4.31-4.306-6.463-9.394-6.463-15.263c0-5.865,2.153-10.953,6.463-15.263
			c4.305-4.306,9.393-6.463,15.262-6.463c5.865,0,10.953,2.157,15.263,6.463C534.235,813.97,536.392,819.058,536.392,824.923z
			 M533.642,1002.848h-37.95V858.473h37.95V1002.848z"/>
		<path fill="#FFFFFF" d="M593.042,1002.848h-37.95V821.597l37.95-18.949V1002.848z"/>
		<path fill="#FFFFFF" d="M727.516,960.772c0,30.069-19.62,45.101-58.85,45.101c-23.47,0-43.635-5.591-60.5-16.775l12.65-28.875
			c15.95,8.8,32.63,13.2,50.05,13.2c12.831,0,19.25-3.665,19.25-11c0-3.3-1.512-5.956-4.537-7.976
			c-3.025-2.015-8.572-4.215-16.638-6.6c-20.35-6.05-34.194-11.825-41.525-17.325c-10.27-7.515-15.4-18.24-15.4-32.175
			c0-14.48,5.405-25.391,16.225-32.725c9.9-6.781,23.74-10.176,41.525-10.176c18.7,0,36.48,4.676,53.35,14.025l-12.1,29.975
			c-14.3-7.699-28.325-11.55-42.075-11.55c-13.02,0-19.525,3.12-19.525,9.351c0,2.935,1.788,5.409,5.362,7.425
			c3.575,2.02,11.778,5.135,24.613,9.35c15.95,5.135,27.225,10.36,33.825,15.675C722.747,937.397,727.516,947.758,727.516,960.772z"
			/>
		<path fill="#FFFFFF" d="M962.086,928.322c0,24.2-7.335,43.27-22,57.2c-13.936,13.569-32.36,20.351-55.275,20.351
			c-25.3,0-45.65-8.98-61.05-26.95c-15.4-17.966-23.101-42.075-23.101-72.325c0-29.33,7.976-53.213,23.926-71.638
			c15.949-18.425,36.48-27.638,61.6-27.638c34.83,0,59.125,16.045,72.875,48.125l-36.575,15.125
			c-4.034-8.25-8.435-14.205-13.2-17.875c-6.05-4.765-13.935-7.149-23.649-7.149c-14.12,0-25.21,5.595-33.275,16.774
			c-8.069,11.186-12.1,25.945-12.1,44.275c0,18.15,4.03,32.819,12.1,44c8.25,11.734,19.431,17.6,33.55,17.6
			c22.551,0,35.105-9.715,37.676-29.149h-30.525v-36.025h69.025V928.322z"/>
		<path fill="#FFFFFF" d="M1020.11,824.923c0,5.869-2.157,10.957-6.463,15.263c-4.31,4.31-9.396,6.462-15.262,6.462
			c-5.87,0-10.957-2.152-15.263-6.462c-4.31-4.306-6.463-9.394-6.463-15.263c0-5.865,2.153-10.953,6.463-15.263
			c4.306-4.306,9.393-6.463,15.263-6.463c5.865,0,10.952,2.157,15.262,6.463C1017.953,813.97,1020.11,819.058,1020.11,824.923z
			 M1017.36,1002.848h-37.95V858.473h37.95V1002.848z"/>
		<path fill="#FFFFFF" d="M1131.76,865.623l-9.9,37.125c-6.784-6.23-14.119-9.351-22-9.351c-8.069,0-14.024,2.11-17.875,6.325
			c-4.399,4.95-6.6,13.295-6.6,25.025v78.1h-37.95V858.473h37.95v9.625c8.065-8.431,17.965-12.65,29.7-12.65
			C1116.45,855.447,1125.34,858.842,1131.76,865.623z"/>
		<path fill="#FFFFFF" d="M1176.308,1002.848h-37.95V821.597l37.95-18.949V1002.848z"/>
		<path fill="#FFFFFF" d="M1310.782,960.772c0,30.069-19.62,45.101-58.851,45.101c-23.469,0-43.635-5.591-60.5-16.775l12.65-28.875
			c15.95,8.8,32.631,13.2,50.05,13.2c12.831,0,19.25-3.665,19.25-11c0-3.3-1.513-5.956-4.537-7.976
			c-3.025-2.015-8.572-4.215-16.638-6.6c-20.35-6.05-34.194-11.825-41.525-17.325c-10.27-7.515-15.399-18.24-15.399-32.175
			c0-14.48,5.405-25.391,16.225-32.725c9.9-6.781,23.74-10.176,41.525-10.176c18.7,0,36.48,4.676,53.35,14.025l-12.1,29.975
			c-14.3-7.699-28.325-11.55-42.075-11.55c-13.02,0-19.525,3.12-19.525,9.351c0,2.935,1.788,5.409,5.363,7.425
			c3.574,2.02,11.777,5.135,24.612,9.35c15.95,5.135,27.225,10.36,33.825,15.675
			C1306.013,937.397,1310.782,947.758,1310.782,960.772z"/>
	</g>
	<g>
		<path fill="#FFFFFF" d="M575.352,1170.841h-18.2v-38.22h-37.31v38.22h-18.2v-91h18.2v34.84h37.31v-34.84h18.2V1170.841z"/>
		<path fill="#FFFFFF" d="M642.821,1170.841h-17.94v-4.55c-3.815,3.987-8.928,5.979-15.34,5.979c-6.935,0-12.785-1.992-17.55-5.979
			c-5.288-4.42-7.93-10.53-7.93-18.33c0-7.28,2.686-12.955,8.06-17.03c4.94-3.726,11.483-5.59,19.63-5.59
			c5.113,0,9.49,0.91,13.13,2.73v-3.381c0-2.513-0.845-4.592-2.535-6.239c-1.69-1.646-4.095-2.471-7.215-2.471
			c-6.848,0-13.087,1.518-18.72,4.551l-6.89-12.48c7.973-4.593,16.51-6.89,25.61-6.89c8.405,0,15.123,2.102,20.15,6.305
			c5.025,4.205,7.54,10.075,7.54,17.615V1170.841z M624.881,1150.821v-8.58c-3.035-1.905-7.195-2.86-12.48-2.86
			c-6.935,0-10.4,2.86-10.4,8.58c0,6.067,3.465,9.1,10.4,9.1C618.206,1157.061,622.366,1154.98,624.881,1150.821z"/>
		<path fill="#FFFFFF" d="M748.641,1170.841H730.7v-36.92c0-5.893-0.867-10.01-2.6-12.35c-1.735-2.341-4.507-3.511-8.32-3.511
			c-3.814,0-6.587,1.085-8.32,3.25c-1.82,2.428-2.73,6.5-2.73,12.221v37.31h-17.94v-36.92c0-5.893-0.868-10.01-2.6-12.35
			c-1.735-2.341-4.507-3.511-8.32-3.511c-3.815,0-6.587,1.085-8.32,3.25c-1.82,2.428-2.73,6.5-2.73,12.221v37.31h-17.94v-68.25
			h17.94v4.55c3.813-3.985,8.795-5.979,14.95-5.979c7.885,0,14.17,2.904,18.85,8.71c5.632-5.806,12.87-8.71,21.71-8.71
			c16.205,0,24.31,10.399,24.31,31.199V1170.841z"/>
		<path fill="#FFFFFF" d="M815.721,1137.561c0,10.4-2.298,18.721-6.891,24.96c-4.768,6.5-11.311,9.75-19.63,9.75
			c-5.72,0-10.53-1.775-14.431-5.33v3.9H756.83v-85.683l17.939-8.957v30.68c4.333-3.812,9.143-5.72,14.431-5.72
			c7.8,0,14.04,2.859,18.72,8.58C813.12,1116.155,815.721,1125.428,815.721,1137.561z M797.52,1137.951
			c0-13.261-3.899-19.891-11.699-19.891c-4.42,0-8.105,1.907-11.051,5.721v25.739c2.86,3.9,6.891,5.851,12.091,5.851
			C793.965,1155.371,797.52,1149.565,797.52,1137.951z"/>
		<path fill="#FFFFFF" d="M879.939,1170.841H862v-4.55c-3.814,3.987-9.145,5.979-15.99,5.979c-16.814,0-25.221-10.399-25.221-31.199
			v-38.48h17.94v36.92c0,5.895,0.952,10.01,2.86,12.35c1.905,2.341,4.81,3.511,8.71,3.511c7.8,0,11.7-5.155,11.7-15.471v-37.31
			h17.939V1170.841z"/>
		<path fill="#FFFFFF" d="M933.239,1105.971l-4.68,17.55c-3.208-2.945-6.675-4.42-10.399-4.42c-3.815,0-6.631,0.998-8.451,2.99
			c-2.08,2.34-3.119,6.285-3.119,11.83v36.92h-17.94v-68.25h17.94v4.55c3.812-3.985,8.492-5.979,14.039-5.979
			C926.002,1101.161,930.205,1102.766,933.239,1105.971z"/>
		<path fill="#FFFFFF" d="M991.219,1159.271c0,11.873-1.907,20.453-5.72,25.74c-4.335,6.065-12.22,9.705-23.66,10.92l-6.37-13.52
			c7.021-0.955,11.743-2.515,14.17-4.681c2.426-2.167,3.641-5.895,3.641-11.18c-4.335,3.814-9.145,5.72-14.43,5.72
			c-7.801,0-14.041-2.902-18.721-8.71c-5.199-6.325-7.8-15.555-7.8-27.689c0-10.4,2.34-18.785,7.021-25.155
			c4.68-6.37,11.18-9.555,19.5-9.555c5.719,0,10.529,1.777,14.43,5.33v-3.9h17.939V1159.271z M973.279,1149.65v-25.739
			c-2.86-3.9-6.891-5.851-12.09-5.851c-7.107,0-10.66,5.808-10.66,17.42c0,13.261,3.9,19.891,11.699,19.891
			C966.648,1155.371,970.332,1153.466,973.279,1149.65z"/>
	</g>
</g>
<g id="Heart">
	<rect x="725" y="420" fill="#FFFFFF" width="55" height="55"/>
	<rect x="780" y="365" fill="#FFFFFF" width="110" height="55"/>
	<rect x="615" y="365" fill="#FFFFFF" width="110" height="55"/>
	<rect x="890" y="420" fill="#FFFFFF" width="55" height="110"/>
	<rect x="560" y="420" fill="#FFFFFF" width="55" height="110"/>
	<rect x="615" y="530" fill="#FFFFFF" width="55" height="55"/>
	<rect x="670" y="585" fill="#FFFFFF" width="55" height="55"/>
	<rect x="835" y="530" fill="#FFFFFF" width="55" height="55"/>
	<rect x="780" y="585" fill="#FFFFFF" width="55" height="55"/>
	<rect x="725" y="640" fill="#FFFFFF" width="55" height="55"/>
	<g>
	</g>
	<g>
	</g>
	<g>
	</g>
	<g>
	</g>
	<g>
	</g>
	<g>
	</g>
	<g>
	</g>
	<g>
	</g>
	<g>
	</g>
	<g>
	</g>
	<g>
	</g>
	<g>
	</g>
	<g>
	</g>
	<g>
	</g>
	<g>
	</g>
</g>
</svg>
